<svg id="Layer_1" data-name="Layer 1" xmlns="http://www.w3.org/2000/svg" viewBox="0 0 2222 2500"><defs><style>.cls-1{fill:#fff;}.cls-2{fill:#212529;}</style></defs><path class="cls-1" d="M2221.89,743.73c0-42-9-79.17-27.16-111.05-17.84-31.35-44.56-57.61-80.39-78.39Q1670.61,298.2,1226.72,42.45c-79.73-46.07-157-44.39-236.16,2.34C872.82,114.3,283.33,452.35,107.67,554.19,35.34,596.12.13,660.27.11,743.65q-.16,515-.11,1030.05c0,41.1,8.62,77.52,26,108.93,17.84,32.29,44.93,59.28,81.6,80.53C283.24,2065,872.81,2403,990.53,2472.55c79.16,46.76,156.46,48.43,236.21,2.34q443.58-256.36,887.69-511.84c36.67-21.24,63.75-48.25,81.6-80.51,17.33-31.4,25.95-67.82,26-108.94,0,0,0-686.51-.11-1029.87"/><path class="cls-1" d="M1224.71,44.69C1145.12-1.26,1068,.41,989,47,871.4,116.35,282.87,453.53,107.5,555.1,35.27,596.91.13,660.9.11,744.07Q-.06,1257.76,0,1771.44c0,41,8.6,77.33,25.93,108.64,17.82,32.21,44.87,59.14,81.47,80.33q87.42,50.53,175,100.85l1623.9-1623.9Q1565.45,241.11,1224.71,44.69"/><path class="cls-2" d="M1340.63,1102.17l345.79,2.44c0-144.08-145.84-496.91-563.95-496.91C856.09,607.7,498,777.06,498,1264S849,1909.66,1122.47,1909.66c442.82,0,548.65-306.41,548.65-479.57l-329.89-18.86s8.83,200.28-220.52,200.28c-211.7,0-247-259.33-247-347.54,0-134.07,47.68-349.3,247-349.3s219.92,187.5,219.92,187.5"/></svg>