<svg id="Capa_1" data-name="Capa 1" xmlns="http://www.w3.org/2000/svg" viewBox="0 0 332.45 373.64"><defs><style>.cls-1,.cls-2{fill:#fff;}.cls-1{fill-rule:evenodd;}.cls-3{fill:#212529;}</style></defs><path class="cls-1" d="M166.22,131.84a55,55,0,0,0-47.73,82.25l95.28-54.85A55,55,0,0,0,166.22,131.84Z"/><path class="cls-1" d="M55.82,186.82a110.41,110.41,0,0,1,206-55.25l66.55-38.32a31.7,31.7,0,0,0-12-11.72Q250,43.25,183.53,5C171.6-1.86,160-1.61,148.2,5.37,130.58,15.76,42.38,66.29,16.1,81.52,5.28,87.78,0,97.37,0,109.83q0,77,0,154a33.06,33.06,0,0,0,3.89,16.28l66.56-38.32A109.91,109.91,0,0,1,55.82,186.82Z"/><path class="cls-2" d="M118.49,214.09a55,55,0,0,0,95.63-.32l-47.39-27.45Z"/><path class="cls-2" d="M166.22,297.22a110.36,110.36,0,0,1-95.78-55.46L3.88,280.08a31.55,31.55,0,0,0,12.21,12c26.28,15.22,114.49,65.75,132.1,76.14,11.85,7,23.41,7.24,35.35.35q66.36-38.31,132.81-76.5a31.62,31.62,0,0,0,12.21-12l-66.45-38.5A110.38,110.38,0,0,1,166.22,297.22Z"/><path class="cls-2" d="M332.43,109.85a33,33,0,0,0-4.06-16.6L166.73,186.32l161.83,93.75a33.08,33.08,0,0,0,3.89-16.28S332.45,161.17,332.43,109.85Zm-55,83.17H264.74v12.65H252.1V193H239.45V180.38H252.1V167.73h12.64v12.65h12.65Zm46.14,0H310.89v12.65H298.24V193H285.59V180.38h12.65V167.73h12.65v12.65h12.64Z"/><polygon class="cls-3" points="310.89 167.73 298.24 167.73 298.24 180.38 285.59 180.38 285.59 193.02 298.24 193.02 298.24 205.67 310.89 205.67 310.89 193.02 323.53 193.02 323.53 180.38 310.89 180.38 310.89 167.73"/><polygon class="cls-3" points="264.74 167.73 252.1 167.73 252.1 180.38 239.45 180.38 239.45 193.02 252.1 193.02 252.1 205.67 264.74 205.67 264.74 193.02 277.39 193.02 277.39 180.38 264.74 180.38 264.74 167.73"/><path class="cls-3" d="M214.12,213.77a55,55,0,1,1-.35-54.53l48-27.67a110.4,110.4,0,1,0,.29,110Z"/></svg>