<svg id="Layer_1" data-name="Layer 1" xmlns="http://www.w3.org/2000/svg" viewBox="0 0 256 255"><defs><style>.cls-1{fill:#fff;}</style></defs><path class="cls-1" d="M126.92.07C62.08.07,66.13,28.19,66.13,28.19l.07,29.12h61.87v8.75H41.63S.14,61.35.14,126.77s36.21,63.1,36.21,63.1H58V159.51S56.8,123.3,93.6,123.3H155s34.47.56,34.47-33.32V34S194.67.07,126.92.07ZM92.8,19.66A11.13,11.13,0,1,1,81.67,30.79,11.11,11.11,0,0,1,92.8,19.66Z"/><path class="cls-1" d="M128.76,254.13c64.83,0,60.78-28.12,60.78-28.12l-.07-29.13H127.6v-8.74H214s41.49,4.7,41.49-60.71-36.21-63.1-36.21-63.1H197.71V94.69s1.16,36.21-35.63,36.21H100.71s-34.47-.56-34.47,33.32v56s-5.24,33.9,62.52,33.9Zm34.11-19.59A11.13,11.13,0,1,1,174,223.41a11.13,11.13,0,0,1-11.13,11.13Z"/></svg>